<?xml version="1.0" encoding="UTF-8" standalone="no"?><!DOCTYPE svg PUBLIC "-//W3C//DTD SVG 1.1//EN" "http://www.w3.org/Graphics/SVG/1.1/DTD/svg11.dtd"><svg width="100%" height="100%" viewBox="0 0 800 800" version="1.1" xmlns="http://www.w3.org/2000/svg" xmlns:xlink="http://www.w3.org/1999/xlink" xml:space="preserve" xmlns:serif="http://www.serif.com/" style="fill-rule:evenodd;clip-rule:evenodd;stroke-linejoin:round;stroke-miterlimit:2;"><g id="Layer-1" serif:id="Layer 1"><path d="M751.343,222.345c-8.433,-31.758 -33.279,-56.767 -64.838,-65.254c-57.183,-15.425 -286.504,-15.425 -286.504,-15.425c0,-0 -229.321,-0 -286.508,15.425c-31.554,8.487 -56.404,33.496 -64.838,65.254c-15.32,57.558 -15.32,177.654 -15.32,177.654c-0,0 -0,120.092 15.32,177.658c8.434,31.755 33.284,56.763 64.838,65.255c57.187,15.42 286.508,15.42 286.508,15.42c0,0 229.321,0 286.504,-15.42c31.559,-8.492 56.405,-33.5 64.838,-65.255c15.325,-57.566 15.325,-177.658 15.325,-177.658c-0,0 -0,-120.096 -15.325,-177.654" style="fill:#f00;fill-rule:nonzero;"/><path d="M325,509.037l191.667,-109.033l-191.667,-109.042l0,218.075Z" style="fill:#fff;fill-rule:nonzero;"/></g></svg>